#tb 0: 1/50
0,          0,          0,        1,   152064, 0x269fdfa9
0,          1,          1,        1,   152064, 0xfbea4366
0,          2,          2,        1,   152064, 0xc957dddc
0,          3,          3,        1,   152064, 0xf3dcec43
0,          4,          4,        1,   152064, 0x0b5d30a2
